<svg xmlns="http://www.w3.org/2000/svg" viewBox="140 420 720 180" fill="none">
  <!-- Traced calligraphic wordmark from original PNG -->
  <path d="M 254.500 430.555 C 213.451 435.556, 166.583 458.511, 150.608 481.439 C 145.161 489.258, 144 492.096, 144 497.597 C 144 504.822, 147.205 509.226, 154.472 511.989 C 157.629 513.189, 160.776 510.640, 158.912 508.394 C 158.276 507.627, 157.248 506.998, 156.628 506.995 C 156.007 506.992, 154.190 505.942, 152.589 504.661 C 150.095 502.665, 149.688 501.662, 149.749 497.658 C 149.843 491.413, 153.012 486.238, 162.154 477.393 C 178.430 461.646, 205.728 447.413, 232.827 440.544 C 269.169 431.332, 297.655 433.895, 308.422 447.346 C 311.260 450.892, 311.499 451.788, 311.487 458.846 C 311.475 465.651, 311.089 467.221, 308.005 473 C 303.524 481.396, 290.222 494.788, 278.945 502.258 C 267.414 509.896, 248.099 519.077, 233.500 523.858 C 218.727 528.697, 216 529.343, 216 528.001 C 216 526.672, 225.029 508.610, 230.248 499.500 C 236.502 488.582, 243.918 477.043, 248.737 470.735 C 253.372 464.666, 253.879 461.701, 250.366 461.197 C 248.012 460.859, 245.531 463.675, 237.323 476 C 232.284 483.568, 218.855 507.265, 213.137 518.681 L 210.040 524.863 204.545 522.931 C 194.815 519.511, 186.061 521.079, 183.955 526.617 C 181.408 533.317, 186.465 537.390, 197.250 537.328 C 200.963 537.306, 204 537.401, 204 537.539 C 204 537.678, 202.603 541.073, 200.896 545.084 C 196.202 556.115, 188.269 578.039, 187.515 582.064 C 187.021 584.700, 187.258 585.969, 188.424 586.937 C 190.866 588.964, 192.547 586.858, 195.004 578.694 C 197.579 570.140, 207.462 544.070, 210.148 538.750 C 211.189 536.688, 212.637 535, 213.365 535 C 214.094 535, 219.147 538.274, 224.595 542.276 C 240.605 554.037, 249.951 560.383, 259 565.639 C 278.742 577.105, 295.844 582.684, 308.161 581.676 C 315.994 581.035, 323 577.901, 323 575.039 C 323 572.006, 321.393 571.759, 316.828 574.088 C 313.106 575.987, 311.482 576.186, 303.544 575.718 C 293.048 575.099, 284.486 572.411, 271.273 565.587 C 261.103 560.334, 245.417 550.293, 232.025 540.464 L 222.787 533.684 236.395 528.930 C 253.765 522.863, 270.836 514.647, 283.256 506.378 C 328.647 476.160, 329.880 437.031, 285.651 430.388 C 274.723 428.747, 269.088 428.777, 254.500 430.555 M 597.500 436.083 C 573.921 439.226, 549.563 449.859, 535.809 463.013 C 530.641 467.955, 529 470.185, 529 472.263 C 529 473.768, 529.450 475.067, 530 475.150 C 530.550 475.233, 531.417 475.345, 531.928 475.400 C 532.438 475.455, 534.245 473.581, 535.944 471.236 C 543.764 460.440, 568.091 447.589, 589.500 442.943 C 597.634 441.178, 615.295 441.150, 621.298 442.893 C 641.809 448.850, 631.880 469.984, 601.365 485.323 C 593.405 489.324, 573.232 496.566, 572.391 495.724 C 571.711 495.044, 582.327 477.401, 589.556 467.197 C 595.268 459.135, 596.085 456.630, 593.345 455.579 C 590.989 454.675, 587.899 457.924, 581.105 468.449 C 566.033 491.793, 555.489 512.427, 545.901 537.337 C 542.824 545.333, 542.119 546.368, 538.500 548.209 C 528.291 553.402, 516.095 564.005, 512.705 570.636 C 509.868 576.185, 509.685 579.718, 511.988 584.475 C 513.735 588.084, 515.210 589.447, 519.820 591.710 C 524.947 594.226, 526.473 594.488, 535.500 594.400 C 542.013 594.336, 548.565 593.555, 554.290 592.160 C 594.196 582.437, 628.216 556.936, 634.662 531.913 C 636.058 526.496, 636.917 524.831, 638.482 524.519 C 641.590 523.899, 653 522.863, 652.999 523.200 C 652.999 523.365, 652.099 525.867, 650.999 528.761 C 648.568 535.158, 648.421 542.187, 650.648 545.586 C 657.876 556.616, 679.280 550.441, 698.456 531.794 C 703.444 526.942, 704.991 526, 707.963 526 C 709.916 526, 712.973 525.581, 714.757 525.070 C 718.545 523.983, 718.705 524.447, 715.940 528.500 C 710.939 535.833, 706.759 545.563, 706.264 551.029 C 705.788 556.271, 705.944 556.811, 708.511 558.830 C 714.395 563.458, 721.819 560.281, 734.373 547.763 C 739.253 542.897, 742.920 539.722, 742.520 540.708 C 738.614 550.351, 738.502 550.931, 740.207 552.636 C 741.108 553.536, 742.517 554.016, 743.338 553.701 C 744.159 553.386, 748.657 548.033, 753.334 541.806 C 762.388 529.752, 774.761 517, 777.403 517 C 779.311 517, 779.368 518.441, 777.866 528.541 C 776.344 538.777, 777.671 543.547, 782.616 545.613 C 787.699 547.737, 792.271 546.471, 799.625 540.905 L 806 536.080 806 541.540 C 806 547.523, 807.857 550.424, 812.421 551.570 C 815.085 552.238, 820.966 550.642, 825 548.156 C 833.910 542.666, 851 526.075, 851 522.917 C 851 522.378, 850.299 521.668, 849.441 521.339 C 848.379 520.932, 844.795 523.769, 838.191 530.246 C 823.994 544.170, 814.858 549.142, 812.199 544.391 C 810.692 541.698, 812.752 534.043, 817.640 524.179 C 820.789 517.825, 821.933 514.533, 821.236 513.836 C 819.491 512.091, 816.617 513.374, 814.513 516.838 C 808.987 525.940, 794.956 539.220, 789.390 540.617 C 783.989 541.972, 783.666 541.107, 784.447 527.398 C 785.082 516.249, 784.968 514.622, 783.426 512.919 C 778.616 507.603, 767.753 513.651, 757.234 527.500 C 749.635 537.504, 749.633 537.455, 756.987 521.139 C 760.801 512.676, 761.057 511.629, 759.653 510.225 C 757.505 508.076, 755.353 509.973, 752.414 516.607 C 749.862 522.368, 743.082 531.013, 732.607 541.860 C 723.584 551.205, 718.455 555, 714.850 555 C 712.483 555, 712 554.580, 712 552.520 C 712 549.116, 714.434 543.329, 720.153 533.132 C 725.257 524.034, 725.963 521.044, 723.492 518.993 C 722.053 517.799, 720.318 517.901, 712.650 519.629 L 709.799 520.272 713.375 514.886 C 717.925 508.032, 718.901 503.653, 716.475 500.973 C 709.575 493.347, 694.421 509.657, 698.087 520.764 C 699.293 524.417, 699.282 524.440, 694.398 528.774 C 683.086 538.811, 669.848 545.891, 662.250 545.967 C 657.950 546.011, 655 543.004, 655 538.579 C 655 535.531, 655.354 535.082, 658.250 534.456 C 669.469 532.031, 682 521.038, 682 513.622 C 682 510.844, 677.840 507, 674.833 507 C 671.463 507, 666.227 509.750, 661.763 513.864 C 657.415 517.872, 657.384 517.882, 646.953 518.600 C 641.204 518.996, 636.293 519.361, 636.041 519.410 C 635.789 519.460, 635.282 518.031, 634.914 516.236 C 632.645 505.140, 619.780 496.424, 602.742 494.438 L 596.984 493.768 602.933 490.954 C 616.652 484.466, 630.919 472.666, 635.772 463.793 C 637.705 460.259, 638.056 458.374, 637.755 453.127 C 637.412 447.149, 637.135 446.516, 633.295 442.934 C 626.666 436.751, 612.635 434.065, 597.500 436.083 M 822.557 498.223 C 819.233 502.968, 821.607 507.364, 825.877 504.373 C 829.071 502.137, 830.384 499.168, 828.947 497.436 C 827.200 495.331, 824.335 495.683, 822.557 498.223 M 576 502.310 L 567.500 504.512 563.292 512.506 C 559.346 520.003, 550.986 539.563, 550.996 541.276 C 550.998 541.702, 552.273 541.393, 553.830 540.588 C 558.009 538.427, 578.107 531.625, 589 528.686 C 599.875 525.751, 623.747 521, 627.615 521 C 629.949 521, 630.148 520.717, 629.548 518.250 C 628.420 513.616, 624.261 508.237, 619.772 505.607 C 609.568 499.629, 591.581 498.274, 576 502.310 M 707.667 507.825 C 704.860 510.755, 702.574 516.618, 703.915 517.447 C 705.048 518.148, 712 507.918, 712 505.550 C 712 504.246, 710.181 505.202, 707.667 507.825 M 361.973 508.649 C 357.272 511.785, 351.836 517.534, 345.330 526.250 C 341.738 531.063, 338.615 535, 338.389 535 C 338.164 535, 339.932 531.063, 342.318 526.250 C 348.856 513.062, 349.467 511.268, 348.017 509.520 C 346.149 507.269, 343.752 509.125, 341.035 514.926 C 339.142 518.966, 337.605 520.597, 333.505 522.910 C 328.784 525.575, 318.075 529.408, 317.357 528.690 C 317.190 528.524, 317.525 526.684, 318.099 524.602 C 319.600 519.166, 318.372 513.439, 315.163 510.909 C 305.784 503.515, 286.146 521.498, 284.324 539.149 C 283.592 546.241, 285.573 550.374, 290.483 551.994 C 297.163 554.199, 306.656 548.382, 312.415 538.555 C 314.648 534.744, 315.418 534.215, 319.550 533.648 C 322.097 533.299, 326.235 532.105, 328.745 530.995 C 331.255 529.884, 333.502 529.169, 333.738 529.405 C 333.974 529.641, 332.590 533.809, 330.663 538.667 C 326.359 549.515, 325.964 551.919, 328.250 553.375 C 330.974 555.110, 332.639 553.505, 342.735 539.401 C 353.105 524.916, 363.409 513, 365.566 513 C 367.749 513, 367.268 516.286, 363.073 530 C 359.103 542.982, 359.080 546, 362.949 546 C 364.066 546, 367.460 542.860, 371.325 538.250 C 379.616 528.361, 385.565 522.613, 386.750 523.345 C 387.314 523.694, 387.337 526.393, 386.807 530.210 C 385.643 538.596, 386.549 543.500, 389.722 545.996 C 394.223 549.536, 400.732 547.953, 408.296 541.479 L 412.469 537.907 413.809 541.927 C 415.911 548.233, 419.946 551, 427.040 551 C 434.601 551, 441.320 548.343, 451.108 541.485 L 458.768 536.117 459.195 542.021 C 459.688 548.841, 461.646 551.655, 466.535 552.573 C 473.103 553.805, 483.419 546.480, 487.669 537.567 C 489.067 534.636, 489.866 534.143, 494.134 533.577 C 505.285 532.097, 519.280 523.778, 517.671 519.585 C 517.034 517.925, 516.781 517.950, 513.745 519.977 C 509.076 523.095, 499.002 527.701, 495.500 528.320 L 492.500 528.850 492.500 520.839 C 492.500 513.627, 492.265 512.637, 490.139 510.914 C 484.478 506.324, 476.058 510.278, 464.150 523.117 C 445.866 542.831, 423.936 551.851, 419.927 541.307 C 418.395 537.278, 419.614 535.368, 424.610 533.969 C 430.609 532.290, 440.048 526.115, 443.465 521.635 C 448.494 515.041, 446.318 507, 439.503 507 C 433.952 507, 426.751 512.360, 417.988 523.015 C 407.822 535.375, 400.177 542, 396.079 542 C 392.448 542, 392.100 540.651, 392.757 529.119 C 393.326 519.145, 392.542 517, 388.328 517 C 384.447 517, 380.721 519.454, 374.661 525.999 C 371.547 529.362, 369.003 531.976, 369.008 531.807 C 369.012 531.638, 369.908 528.575, 371 525 C 373.393 517.164, 373.532 512.205, 371.443 509.223 C 369.572 506.551, 365.488 506.304, 361.973 508.649 M 434.500 514.844 C 429.804 517.719, 420.301 529, 422.575 529 C 422.930 529, 425.904 527.569, 429.185 525.821 C 434.982 522.731, 441 516.849, 441 514.272 C 441 512.446, 437.984 512.711, 434.500 514.844 M 668.630 515.778 C 663.183 519.840, 656.192 529, 658.540 529 C 660.299 529, 667.842 524.265, 671.599 520.802 C 678.887 514.084, 676.444 509.952, 668.630 515.778 M 306.557 516.223 C 304.290 519.458, 304.645 522.735, 307.577 525.668 C 310.809 528.899, 311.863 527.950, 312.677 521.076 C 313.146 517.117, 312.953 515.584, 311.901 514.918 C 309.656 513.496, 308.221 513.847, 306.557 516.223 M 481.557 516.223 C 479.412 519.285, 479.607 523.607, 482 526 C 485.438 529.438, 486.135 528.779, 487.560 520.739 C 488.639 514.654, 484.720 511.706, 481.557 516.223 M 470.703 525.063 C 463.964 536.563, 463.012 547, 468.703 547 C 472.075 547, 476.380 543.762, 479.998 538.503 C 483.301 533.702, 483.722 532, 481.605 532 C 479.548 532, 475.732 527.660, 474.456 523.870 L 473.342 520.560 470.703 525.063 M 295.985 525.021 C 293.298 528.795, 290 538.027, 290 541.775 C 290 550.374, 298.743 548.048, 305.985 537.522 L 308.907 533.275 305.203 530.887 C 302.873 529.385, 301.145 527.295, 300.543 525.250 C 299.360 521.232, 298.707 521.199, 295.985 525.021 M 192 526.697 C 189.745 527.604, 188.986 529.278, 190.180 530.716 C 191.377 532.159, 202.236 532.382, 205.500 531.032 C 207.302 530.287, 207.153 530.055, 204 528.694 C 199.696 526.836, 194.008 525.890, 192 526.697 M 610.500 529.049 C 593.034 532.651, 572.773 538.764, 558.762 544.659 L 548.025 549.177 546.512 554.270 C 545.681 557.071, 545 559.906, 545 560.571 C 545 561.235, 544.129 562.841, 543.065 564.139 C 541.282 566.313, 540.999 566.373, 539.489 564.888 C 538.091 563.516, 538.017 562.649, 538.990 559.038 C 539.618 556.706, 539.957 554.624, 539.744 554.410 C 538.994 553.661, 529.721 560.150, 524.540 565.051 C 513.250 575.728, 513.646 584.911, 525.527 587.902 C 538.574 591.188, 559.200 586.809, 581.575 576.003 C 606.451 563.989, 625.909 544.777, 629.433 528.750 C 629.982 526.255, 629.782 526.007, 627.269 526.081 C 625.746 526.126, 618.200 527.461, 610.500 529.049" stroke="none" fill="#1A1C1B" fill-rule="evenodd"/>
  <!-- Mint Green medical cross accent -->
  <line x1="838" y1="428" x2="838" y2="450" stroke="#A8DADC" stroke-width="3" stroke-linecap="round"/>
  <line x1="827" y1="439" x2="849" y2="439" stroke="#A8DADC" stroke-width="3" stroke-linecap="round"/>
</svg>